<?xml version="1.0" encoding="utf-8"?>
<!-- Generator: Adobe Illustrator 19.2.1, SVG Export Plug-In . SVG Version: 6.00 Build 0)  -->
<svg version="1.1" id="Layer_1" xmlns="http://www.w3.org/2000/svg" xmlns:xlink="http://www.w3.org/1999/xlink" x="0px" y="0px"
	 viewBox="0 0 595.3 595.3" style="enable-background:new 0 0 595.3 595.3;" xml:space="preserve">
<style type="text/css">
	.st0{fill:#b5a399;}
</style>
<g>
	<g>
		<g>
			<path class="st0" d="M297.6,173.8c0,0-17.4,17.1-17.4,38.2c0,19.4,6.6,35.4,15.2,37.8c-2.4-2.5-4-9-4-16.5
				c0-9.8,6.3-17.7,6.3-17.7s6.3,7.9,6.3,17.7c0,7.5-1.7,14-4,16.5c8.6-2.4,15.2-18.4,15.2-37.8
				C315.1,190.9,297.6,173.8,297.6,173.8z"/>
		</g>
	</g>
	<g>
		<g>
			<g>
				<g>
					<g>
						<path class="st0" d="M261.9,237.9c-3.4-3.4-6.1-7.3-8.1-11.2c-2.5,0.7-4,1.4-4,1.4s8.7,14.6,23.8,19.5c0,0,0,0,0,0
							C269.6,245,265.7,241.7,261.9,237.9z"/>
					</g>
				</g>
			</g>
			<g>
				<g>
					<path class="st0" d="M275.7,216.1c0-2,0.2-3.9,0.5-5.8c-11.7-7.1-24.7-7.7-24.7-7.7s0.9,19.6,13.5,32.2
						c7.1,7.1,14.7,12.1,20.9,14.2C279.7,242.4,275.7,230.4,275.7,216.1z"/>
				</g>
			</g>
		</g>
		<g>
			<g>
				<g>
					<g>
						<path class="st0" d="M333.4,237.9c3.4-3.4,6.1-7.3,8.1-11.2c2.5,0.7,4,1.4,4,1.4s-8.7,14.6-23.8,19.5c0,0,0,0,0,0
							C325.6,245,329.6,241.7,333.4,237.9z"/>
					</g>
				</g>
			</g>
			<g>
				<g>
					<path class="st0" d="M319.6,216.1c0-2-0.2-3.9-0.5-5.8c11.7-7.1,24.7-7.7,24.7-7.7s-0.9,19.6-13.5,32.2
						c-7.1,7.1-14.7,12.1-20.9,14.2C315.6,242.4,319.6,230.4,319.6,216.1z"/>
				</g>
			</g>
		</g>
	</g>
</g>
<g>
	<g>
		<g>
			<g>
				<path class="st0" d="M246.3,218.7c-8.8,1-9.7,1.9-10.7,10.7c-1-8.8-1.9-9.7-10.7-10.7c8.8-1,9.7-1.9,10.7-10.7
					C236.6,216.8,237.5,217.7,246.3,218.7z"/>
			</g>
		</g>
		<g>
			<g>
				<path class="st0" d="M271,189.7c-6,0.7-6.6,1.3-7.3,7.3c-0.7-6-1.3-6.6-7.3-7.3c6-0.7,6.6-1.3,7.3-7.3
					C264.4,188.4,265,189,271,189.7z"/>
			</g>
		</g>
	</g>
	<g>
		<g>
			<g>
				<path class="st0" d="M349,218.7c8.8,1,9.7,1.9,10.7,10.7c1-8.8,1.9-9.7,10.7-10.7c-8.8-1-9.7-1.9-10.7-10.7
					C358.7,216.8,357.8,217.7,349,218.7z"/>
			</g>
		</g>
		<g>
			<g>
				<path class="st0" d="M324.3,189.7c6,0.7,6.6,1.3,7.3,7.3c0.7-6,1.3-6.6,7.3-7.3c-6-0.7-6.6-1.3-7.3-7.3
					C330.9,188.4,330.3,189,324.3,189.7z"/>
			</g>
		</g>
	</g>
</g>
<g>
	<g>
		<g>
			<path class="st0" d="M198.5,260.1v-55.6c0-32.1,26.1-58.2,58.2-58.2h81.9c32.1,0,58.2,26.1,58.2,58.2v71.3c0,0,0,0,0.1,0
				c1.8,0,3.2,0.2,4.5,0.7v-72c0-34.6-28.2-62.8-62.8-62.8h-81.9c-34.6,0-62.8,28.2-62.8,62.8V261
				C195.4,260.7,196.9,260.4,198.5,260.1z"/>
		</g>
	</g>
	<g>
		<g>
			<path class="st0" d="M396.8,391.1v9.4H349H246.3h-47.8v-6.3c-2.1-1-3.7-2.7-4.6-4.7v15.6h47.8h111.9h47.8v-17.2
				C399.9,389.1,398.4,390.2,396.8,391.1z"/>
		</g>
	</g>
</g>
<g>
	<g>
		<g>
			<g>
				<path class="st0" d="M361.3,453.5H234v-40h127.3V453.5z M238.6,448.9h118.1v-30.8H238.6V448.9z"/>
			</g>
		</g>
	</g>
	<g>
		<g>
			<g>
				<g>
					<rect x="193.9" y="431.3" class="st0" width="42.4" height="4.6"/>
				</g>
			</g>
		</g>
		<g>
			<g>
				<g>
					<rect x="359" y="431.3" class="st0" width="42.4" height="4.6"/>
				</g>
			</g>
		</g>
	</g>
	<g>
		<path class="st0" d="M260.7,428.8c-0.1,0.1-0.1,0.2-0.3,0.2c-0.1,0-0.2-0.1-0.3-0.2c-0.1-0.1-0.3-0.3-0.6-0.4s-0.5-0.3-0.9-0.4
			c-0.4-0.1-0.8-0.2-1.3-0.2c-0.5,0-1,0.1-1.4,0.2c-0.4,0.1-0.7,0.3-1,0.6c-0.3,0.3-0.5,0.5-0.6,0.9c-0.1,0.3-0.2,0.7-0.2,1
			c0,0.5,0.1,0.9,0.3,1.2c0.2,0.3,0.5,0.6,0.8,0.8c0.3,0.2,0.7,0.4,1.1,0.6s0.9,0.3,1.3,0.4c0.4,0.1,0.9,0.3,1.3,0.5
			s0.8,0.4,1.1,0.7c0.3,0.3,0.6,0.6,0.8,1s0.3,0.9,0.3,1.5c0,0.6-0.1,1.2-0.3,1.7s-0.5,1-0.9,1.4c-0.4,0.4-0.9,0.7-1.4,0.9
			c-0.6,0.2-1.2,0.3-1.9,0.3c-0.9,0-1.7-0.2-2.4-0.5c-0.7-0.3-1.3-0.8-1.8-1.4l0.3-0.4c0.1-0.1,0.2-0.1,0.3-0.1c0.1,0,0.1,0,0.2,0.1
			c0.1,0.1,0.2,0.2,0.3,0.3c0.1,0.1,0.3,0.2,0.5,0.4s0.4,0.3,0.6,0.4s0.5,0.2,0.9,0.3s0.7,0.1,1.1,0.1c0.6,0,1.1-0.1,1.5-0.3
			c0.4-0.2,0.8-0.4,1.1-0.7c0.3-0.3,0.5-0.6,0.7-1c0.2-0.4,0.2-0.8,0.2-1.3c0-0.5-0.1-0.9-0.3-1.2c-0.2-0.3-0.5-0.6-0.8-0.8
			c-0.3-0.2-0.7-0.4-1.1-0.5c-0.4-0.1-0.9-0.3-1.3-0.4s-0.9-0.3-1.3-0.5c-0.4-0.2-0.8-0.4-1.1-0.7c-0.3-0.3-0.6-0.6-0.8-1
			c-0.2-0.4-0.3-0.9-0.3-1.5c0-0.5,0.1-0.9,0.3-1.4c0.2-0.4,0.4-0.8,0.8-1.2c0.3-0.3,0.8-0.6,1.3-0.8c0.5-0.2,1.1-0.3,1.7-0.3
			c0.7,0,1.4,0.1,2,0.4s1.1,0.6,1.6,1.1L260.7,428.8z"/>
		<path class="st0" d="M281.1,441.2h-0.8c-0.1,0-0.2,0-0.2-0.1c-0.1,0-0.1-0.1-0.1-0.2l-1.7-4.1h-6.9l-1.7,4.1
			c0,0.1-0.1,0.1-0.1,0.2c-0.1,0.1-0.1,0.1-0.2,0.1h-0.8l5.8-14.1h1L281.1,441.2z M271.6,436.1h6.3l-2.9-7.1
			c-0.1-0.2-0.2-0.5-0.3-0.8c0,0.2-0.1,0.3-0.1,0.5c0,0.1-0.1,0.3-0.1,0.4L271.6,436.1z"/>
		<path class="st0" d="M290.4,440.3h6.7v0.9h-7.7v-14.1h1V440.3z"/>
		<path class="st0" d="M317.2,434.1c0,1.1-0.2,2.1-0.5,3s-0.8,1.6-1.4,2.3c-0.6,0.6-1.3,1.1-2.1,1.5c-0.8,0.3-1.7,0.5-2.7,0.5
			s-1.9-0.2-2.7-0.5c-0.8-0.3-1.5-0.8-2.1-1.5c-0.6-0.6-1.1-1.4-1.4-2.3c-0.3-0.9-0.5-1.9-0.5-3c0-1.1,0.2-2.1,0.5-3
			c0.3-0.9,0.8-1.6,1.4-2.3c0.6-0.6,1.3-1.1,2.1-1.5s1.7-0.5,2.7-0.5s1.9,0.2,2.7,0.5c0.8,0.3,1.5,0.8,2.1,1.5s1.1,1.4,1.4,2.3
			S317.2,433,317.2,434.1z M316.2,434.1c0-1-0.1-1.9-0.4-2.7c-0.3-0.8-0.7-1.5-1.2-2c-0.5-0.5-1.1-1-1.8-1.3s-1.5-0.4-2.3-0.4
			c-0.8,0-1.6,0.1-2.3,0.4c-0.7,0.3-1.3,0.7-1.8,1.3c-0.5,0.5-0.9,1.2-1.2,2c-0.3,0.8-0.4,1.7-0.4,2.7c0,1,0.1,1.9,0.4,2.7
			c0.3,0.8,0.7,1.4,1.2,2s1.1,1,1.8,1.3c0.7,0.3,1.5,0.4,2.3,0.4c0.8,0,1.6-0.1,2.3-0.4s1.3-0.7,1.8-1.3s0.9-1.2,1.2-2
			C316,436,316.2,435.1,316.2,434.1z"/>
		<path class="st0" d="M327.2,427.1c0.1,0,0.1,0.1,0.2,0.2l9.2,12.3c0-0.2,0-0.4,0-0.6v-11.9h0.9v14.1h-0.5c-0.1,0-0.2,0-0.2,0
			c-0.1,0-0.1-0.1-0.2-0.2l-9.2-12.3c0,0.2,0,0.4,0,0.6v11.9h-0.9v-14.1h0.5C327.1,427.1,327.2,427.1,327.2,427.1z"/>
	</g>
</g>
<g>
	<rect x="297.6" y="293.1" class="st0" width="90" height="3.9"/>
</g>
<g>
	<path class="st0" d="M249.3,279.9c5.3,1.7,13.4,5.4,15.1,11.4c4.3,14.6-15.8,23.9-30.2,22.2c-10.2-1.3-16.3-3.3-21.3-5.5
		c-6.2,4.6-13.1,6.6-20.4,5.6c-16.3-2-10.8-20.9,7.2-14.6c3,1.1,6.6,3.4,11.6,5.9c10.6-10.2,16.4-31.7,30.1-46.9l4.6-5.2
		c-8.9-1.5-19.8-1.4-30.6,0.9c-22.2,4.7-29.4,23.9-17.6,27.6c9.4,3,14.9-6.4,14.5-8.7c0-0.5,1.7-1.1,1.7,0.6v0.1
		c-1.2,7.9-9.9,12.4-17,9.9c-16.3-5.7-8.7-28.9,19.4-32.9c11.1-1.6,22.2-1.3,31.5,0.7c1.4-1.2,3-2.2,4.4-2.7c2.6-1,2.7,0,0.8,1.2
		c-1,0.7-2.2,1.8-2.3,2.2c13.8,3.5,21.9,10.6,16.5,19.9C263.8,277.4,255.3,279.6,249.3,279.9z M197.8,301
		c-12.2-4.2-13.6,9.7-3.2,10.2c5.8,0.2,10.8-1.7,15-4.9C205.9,304.6,202.5,302.7,197.8,301z M249.8,253.6
		c-10.7,14.7-21.4,38.4-32.1,49.9l-3,2.9c5,2.1,11.2,4,19.4,4.8c20.9,1.9,33.4-19.2,17.9-26.6c-6.2-3-14.1-4.1-14.9-5.8
		c0-2.7,5.4-1.1,11.6-1.1c9.9-0.2,23.3-14.6,8.6-21.5C255.2,255.1,252.6,254.3,249.8,253.6z"/>
	<path class="st0" d="M275.4,310.9c-4,0-7.6-2.6-7.7-7.7c-0.1-4.8,2.6-10.8,6.2-15c4.1-4.8,10.2-7.8,13.7-5.2
		c3,2.3,0.7,7.8-4.4,11.7c-2.5,1.8-7.7,3.5-9.8,3.5c-1.2,2.9-2.6,11,2.7,11c7,0,11.4-9.4,13.2-13.7c0.6-1.4,2.2-1.6,1.4,0.1
		C287.8,302,284.3,310.9,275.4,310.9z M278.7,289.4c-2.1,2.6-4.1,6.1-4.8,7.5c1.4,0,5.6-1.1,8.5-3.5
		C289,287.9,288.6,277.5,278.7,289.4z"/>
</g>
<g>
	<path class="st0" d="M258,334.3c5.3,1.7,13.4,5.4,15.1,11.4c4.3,14.6-15.8,23.9-30.2,22.2c-10.2-1.3-16.3-3.3-21.3-5.5
		c-6.2,4.6-13.1,6.6-20.4,5.6c-16.3-2-10.8-20.9,7.2-14.6c3,1.1,6.6,3.4,11.6,5.9c10.6-10.2,16.4-31.7,30.1-46.9l4.6-5.2
		c-8.9-1.5-19.8-1.4-30.6,0.9c-22.2,4.7-29.4,23.9-17.6,27.6c9.4,3,14.9-6.4,14.5-8.7c0-0.5,1.7-1.1,1.7,0.6v0.1
		c-1.2,7.9-9.9,12.4-17,9.9c-16.3-5.7-8.7-28.9,19.4-32.9c11.1-1.6,22.2-1.3,31.5,0.7c1.4-1.2,3-2.2,4.4-2.7c2.6-1,2.7,0,0.8,1.2
		c-1,0.7-2.2,1.8-2.3,2.2c13.8,3.5,21.9,10.6,16.5,19.9C272.6,331.8,264,334,258,334.3z M206.5,355.4c-12.2-4.2-13.6,9.7-3.2,10.2
		c5.8,0.2,10.8-1.7,15-4.9C214.7,359,211.2,357.1,206.5,355.4z M258.6,308c-10.7,14.7-21.4,38.4-32.1,49.9l-3,2.9
		c5,2.1,11.2,4,19.4,4.8c20.9,1.9,33.4-19.2,17.9-26.6c-6.2-3-14.1-4.1-14.9-5.8c0-2.7,5.4-1.1,11.6-1.1c9.9-0.2,23.3-14.6,8.6-21.5
		C264,309.5,261.4,308.7,258.6,308z"/>
	<path class="st0" d="M284.2,365.3c-4,0-7.6-2.6-7.7-7.7c-0.1-4.8,2.6-10.8,6.2-15c4.1-4.8,10.2-7.8,13.7-5.2
		c3,2.3,0.7,7.8-4.4,11.7c-2.5,1.8-7.7,3.5-9.8,3.5c-1.2,2.9-2.6,11,2.7,11c7,0,11.4-9.4,13.2-13.7c0.6-1.4,2.2-1.6,1.4,0.1
		C296.5,356.4,293.1,365.3,284.2,365.3z M287.5,343.8c-2.1,2.6-4.1,6.1-4.8,7.5c1.4,0,5.6-1.1,8.5-3.5
		C297.7,342.3,297.3,331.9,287.5,343.8z"/>
	<path class="st0" d="M315.3,365.2c-2.6,0.2-6.4-1.9-4-10.3c-1.3,2.1-3.4,5.3-5.8,7.5c-9.2,8.8-15.3-5.2-3.2-19.7
		c4.8-5.7,14-8.6,18.6-3.7c1.1,1.2,0.5,2.6-0.9,2.3c-0.9-3-3.8-3.6-6.8-2c-3.6,2-7.8,6.7-10.6,11.4c-0.6,1.1-2.8,5-3.3,8.1
		c-0.8,5.6,3.6,5,7.4,0.5c2.8-3.4,5-7.3,7.1-11.2c1.8-3.4,2.9-5.3,5.4-5.1c1,0.1,2.2,0.6,3.4,0.3c-1.7,1.7-6.4,10.1-7.4,15
		c-0.6,3.3-0.2,4.8,0.8,4.8c3.4,0.2,8.6-10,10.3-13.4c0.7-1.4,1.9-1,1.1,0.6C325,355.2,320.1,364.8,315.3,365.2z"/>
	<path class="st0" d="M343.2,364.9c-3.6,0-5.8-3.8-3.7-10.2c-2.7,4.8-6.9,10.2-10.8,10.2c-1.6,0-4.4-0.6-5-3.6
		c-0.7-3.4,1.3-6.4,2.7-9.3c-0.5,0-1.2-0.2-0.7-1.3l1.4-2.8c1.6-3,3.3-6.3,4.5-8.8c0.6-1.3,1.6-1.7,3.1-1.7h4.9
		c-1.8,1.4-3,2.3-5.1,6.7c0,0-3.6,7.3-5,10.3c-3.8,8.3-0.5,11.5,4.7,5.5c4.5-5.2,8.9-14.6,11.9-20.9c0.6-1.3,1.6-1.7,3.1-1.7h4.3
		c-2.3,1.8-3.1,3-5.5,7.9c-2.2,4.5-4.9,10-5.4,12.7c-0.7,3.4,0.4,4.7,1.5,4.8c3.9,0,7.9-7.6,10.6-13.4c0.6-1.4,1.9-0.9,1.1,0.7
		C353.4,355.7,349.1,364.9,343.2,364.9z"/>
	<path class="st0" d="M374.4,336.4h-4.6c-2.7,4.6-5.9,8.9-10.6,13.2c-0.7,2.1-1.8,8.2-1.8,8.2c-1.2,5.4,2.5,6.1,5.1,4.2
		c3.7-2.7,6.3-7.8,8.5-12.1c0.6-1.4,1.8-1.1,1,0.5c-3.5,7.4-4.9,9.5-7.8,12.5c-4.3,4.2-12.2,2.8-11-6c0.7-5.4,3.7-14.2,6.2-20.4
		h-4.2c-0.9,0-0.7-1.8,0.2-1.8h4.8c1.8-4,3.8-7.9,5.8-11.4c5.5-9.7,14.2-8.3,8.2,4.5c-1.1,2.4-2.2,4.6-3.4,6.9h3.8
		C375.3,334.6,375.2,336.4,374.4,336.4z M364.1,336.4c-1.7,3.9-3.2,7.8-4.3,10.6c3-3.1,5.8-6.8,8.1-10.6H364.1z M370.6,322.9
		c-1.9,2.7-3.7,7.1-5.7,11.7h4c1.5-2.7,2.9-5.5,4-8.2C374.4,323.1,375.6,316,370.6,322.9z"/>
	<path class="st0" d="M384.8,369c-5,9-13,21.3-24.8,21.3c-8,0-8.8-5.3-6.4-9.8c1.5-3,4.4-5.1,7.5-6.6c5.4-2.6,13-3.9,19.4-5.8
		c3-5.3,5.6-13.8,6.9-18c-2.7,4.8-7.9,14.7-14.1,14.7c-1.6,0-4.4-0.6-5-3.6c-0.7-3.4,1.3-6.4,2.7-9.3c-0.5,0-1.2-0.2-0.7-1.3
		l1.4-2.8c1.6-3,3.3-6.3,4.5-8.8c0.6-1.3,1.6-1.7,3.1-1.7h4.9c-0.7,0.6-2,1.2-3,2.9c-2.7,4.6-5,9.4-7.2,14.2
		c-3.8,8.3-0.5,11.5,4.7,5.5c4.5-5.2,9.5-14.6,12.6-20.9c0.6-1.3,1.6-1.7,3.1-1.7h4.3c-3,2.1-4.2,5.3-6.2,10.6s-4.1,12-6.4,18.3
		c3.5-1,8.4-3.4,11.5-7.9c2.5-3.6,4.2-7.3,5-8.8c0.7-1.4,1.9-0.9,1.1,0.7C398.4,361.5,396.3,364.8,384.8,369z M362.4,375.7
		c-8.2,3.5-11.2,13-4.3,13c7,0,15.5-9.9,19.2-15l1.8-3C373.9,372.1,367,373.7,362.4,375.7z"/>
</g>
</svg>
